<svg width="123" height="123" viewBox="0 0 123 123" fill="none" xmlns="http://www.w3.org/2000/svg">
<path d="M80.4 55.2C80.4 50.1874 78.4088 45.3801 74.8643 41.8357C71.3199 38.2912 66.5126 36.3 61.5 36.3C56.4874 36.3 51.6801 38.2912 48.1357 41.8357C44.5912 45.3801 42.6 50.1874 42.6 55.2V89.85H36.3C34.6291 89.85 33.0267 89.1863 31.8452 88.0048C30.6637 86.8233 30 85.2209 30 83.55V70.95C30 69.2791 30.6637 67.6767 31.8452 66.4952C33.0267 65.3138 34.6291 64.65 36.3 64.65V55.2C36.3 48.5165 38.955 42.1068 43.6809 37.3809C48.4068 32.655 54.8165 30 61.5 30C68.1835 30 74.5932 32.655 79.3191 37.3809C84.045 42.1068 86.7 48.5165 86.7 55.2V64.65C88.3709 64.65 89.9733 65.3138 91.1548 66.4952C92.3363 67.6767 93 69.2791 93 70.95V83.55C93 85.2209 92.3363 86.8233 91.1548 88.0048C89.9733 89.1863 88.3709 89.85 86.7 89.85H80.4V55.2ZM67.8 61.5H77.25V93H67.8V61.5ZM45.75 61.5H55.2V93H45.75V61.5Z" fill="#E93314"/>
<rect width="123" height="123" rx="5" fill="#E93314" fill-opacity="0.15"/>
</svg>
