<svg width="123" height="123" viewBox="0 0 123 123" fill="none" xmlns="http://www.w3.org/2000/svg">
<rect width="123" height="123" rx="5" fill="#E93314" fill-opacity="0.15"/>
<path d="M61.5 26L47.7395 34.655H35.95V41.9897L28.5405 46.7206C26.4235 48.0041 25 50.3146 25 52.9917V89.6653C25 91.6106 25.7691 93.4762 27.1381 94.8517C28.5071 96.2272 30.3639 97 32.3 97H90.7C94.7515 97 98 93.7361 98 89.6653V52.9917C98 50.3146 96.5765 48.0041 94.4595 46.7206L87.05 41.9897V34.655H75.2605L61.5 26ZM43.25 41.9897H79.75V59.8864L61.5 71.3285L43.25 59.8864V41.9897ZM46.9 45.657V51.1581H76.1V45.657H46.9ZM35.95 50.718V55.3022L32.3 52.9917L35.95 50.718ZM87.05 50.718L90.7 52.9917L87.05 55.3022V50.718ZM46.9 54.8254V60.3264H76.1V54.8254H46.9Z" fill="#E93314"/>
</svg>
