<svg width="526" height="491" viewBox="0 0 526 491" fill="none" xmlns="http://www.w3.org/2000/svg">
<g clip-path="url(#clip0)">
<path d="M276.274 184.346C305.296 184.346 328.822 160.832 328.822 131.826C328.822 102.821 305.296 79.3069 276.274 79.3069C247.253 79.3069 223.727 102.821 223.727 131.826C223.727 160.832 247.253 184.346 276.274 184.346Z" fill="#E6E6E6"/>
<path d="M357.584 270.716H196.41V431.803H357.584V270.716Z" fill="#E6E6E6"/>
<path d="M500.488 350.217C500.058 350.968 499.484 351.628 498.799 352.158C498.114 352.688 497.331 353.078 496.496 353.305C495.66 353.533 494.788 353.593 493.928 353.484C493.069 353.375 492.24 353.097 491.488 352.667C490.736 352.238 490.076 351.664 489.546 350.98C489.016 350.295 488.626 349.513 488.398 348.677C488.17 347.842 488.109 346.97 488.219 346.111C488.328 345.253 488.606 344.424 489.036 343.672C489.051 343.647 489.065 343.621 489.08 343.596C489.265 343.287 489.473 342.992 489.702 342.715L484.153 303.189L483.987 302.005L482.86 293.94L482.694 292.777L483.308 292.806L494.058 293.297L496.941 293.427L497.302 300.785L499.346 342.151C500.415 343.173 501.108 344.524 501.315 345.986C501.522 347.449 501.231 348.939 500.488 350.217Z" fill="#FFB8B8"/>
<path d="M484.019 302.363L497.669 301.112C498.377 301.045 499.03 300.701 499.485 300.155C499.941 299.609 500.162 298.905 500.1 298.197L497.571 269.826C497.45 268.473 497.064 267.157 496.434 265.953C495.805 264.749 494.944 263.681 493.901 262.81C492.858 261.938 491.654 261.281 490.357 260.875C489.06 260.468 487.696 260.322 486.342 260.442C484.988 260.563 483.672 260.949 482.467 261.579C481.263 262.208 480.194 263.068 479.322 264.111C478.451 265.153 477.793 266.356 477.386 267.653C476.98 268.949 476.833 270.312 476.954 271.665C476.971 271.861 476.994 272.056 477.023 272.25L481.116 300.078C481.21 300.715 481.53 301.298 482.018 301.72C482.506 302.141 483.128 302.374 483.773 302.375C483.855 302.376 483.937 302.372 484.019 302.363Z" fill="#E93314"/>
<path d="M494.366 279.443C495.746 275.534 495.81 271.281 494.548 267.333C493.286 263.385 490.766 259.957 487.373 257.573C482.226 254.053 475.182 252.789 467.596 261.815C452.425 279.867 448.451 299.723 448.451 299.723L479.517 304.778C479.517 304.778 490.081 291.871 494.366 279.443Z" fill="#E93314"/>
<path d="M444.122 482.778H435.265L431.051 448.634H444.123L444.122 482.778Z" fill="#FFB8B8"/>
<path d="M418.185 490.998H446.022V480.249H428.94C426.088 480.249 423.352 481.381 421.335 483.397C419.318 485.413 418.185 488.147 418.185 490.998Z" fill="#2F2E41"/>
<path d="M516.94 475.058L508.531 477.836L493.807 446.739L506.219 442.638L516.94 475.058Z" fill="#FFB8B8"/>
<path d="M494.893 490.998L521.323 482.267L517.948 472.06L501.73 477.418C500.389 477.861 499.148 478.564 498.079 479.486C497.009 480.408 496.132 481.532 495.497 482.793C494.863 484.054 494.483 485.427 494.379 486.835C494.275 488.243 494.45 489.657 494.893 490.998Z" fill="#2F2E41"/>
<path d="M474.865 248.62C484.665 248.62 492.609 240.68 492.609 230.886C492.609 221.091 484.665 213.151 474.865 213.151C465.065 213.151 457.121 221.091 457.121 230.886C457.121 240.68 465.065 248.62 474.865 248.62Z" fill="#FFB8B8"/>
<path d="M459.329 473.274L467.554 419.015C467.642 418.436 467.928 417.905 468.364 417.514C468.8 417.123 469.358 416.895 469.943 416.869C470.529 416.843 471.105 417.022 471.573 417.374C472.042 417.726 472.373 418.229 472.511 418.798L485.037 470.506C485.234 471.299 485.721 471.988 486.401 472.441C487.081 472.893 487.905 473.075 488.713 472.951L523.264 467.401C523.722 467.327 524.159 467.157 524.546 466.9C524.932 466.644 525.26 466.308 525.506 465.914C525.752 465.521 525.91 465.08 525.971 464.62C526.032 464.16 525.994 463.693 525.86 463.249L480.807 314.794C480.679 314.372 480.664 313.924 480.763 313.494L482.263 306.996C482.428 306.291 482.351 305.552 482.047 304.896C481.742 304.24 481.226 303.704 480.582 303.375C474.447 300.247 458.908 293.742 447.182 300.867C446.802 301.099 446.472 301.406 446.214 301.769C445.956 302.133 445.774 302.545 445.68 302.98L410.486 468.31C410.39 468.76 410.391 469.224 410.488 469.673C410.585 470.123 410.777 470.546 411.05 470.916C411.323 471.286 411.671 471.594 412.072 471.819C412.473 472.044 412.917 472.182 413.375 472.223L455.824 476.022C455.92 476.031 456.017 476.035 456.113 476.035C456.89 476.034 457.641 475.755 458.231 475.248C458.82 474.742 459.209 474.041 459.327 473.273L459.329 473.274Z" fill="#2F2E41"/>
<path d="M486.631 218.356C485.293 217.552 484.106 216.521 483.123 215.309C482.638 214.697 482.318 213.97 482.196 213.198C482.073 212.427 482.151 211.637 482.422 210.904C483.319 208.927 485.983 208.305 488.047 208.976C490.112 209.647 491.707 211.266 493.215 212.826C494.544 214.198 495.91 215.637 496.538 217.441C497.166 219.246 496.845 221.534 495.277 222.629C493.738 223.704 491.526 223.264 490.046 222.11C488.567 220.956 487.651 219.243 486.777 217.583L486.631 218.356Z" fill="#2F2E41"/>
<path d="M492.641 213.303C492.739 208.306 498.438 204.723 503.36 205.609C508.282 206.495 512.064 210.688 513.958 215.314C517.959 225.087 514.956 236.238 511.101 246.074C507.246 255.909 502.475 265.886 503.037 276.431C503.418 282.131 505.332 287.621 508.576 292.324C511.821 297.026 516.276 300.766 521.471 303.147C515.916 305.664 509.277 303.064 504.609 299.141C494.244 290.43 490.243 274.919 495.101 262.284C497.498 256.052 501.721 250.721 505.018 244.915C508.316 239.109 510.735 232.266 509.032 225.81C507.329 219.354 500.085 214.128 493.891 216.625L492.641 213.303Z" fill="#2F2E41"/>
<path d="M473.801 238.755C475.347 236.143 476.907 232.713 474.081 230.429C473.466 229.955 472.763 229.609 472.012 229.411C471.262 229.212 470.479 229.166 469.71 229.274C466.523 229.658 463.051 229.816 459.966 228.659C458.809 228.261 457.743 227.634 456.833 226.817C455.923 225.999 455.186 225.007 454.667 223.9C453.077 220.128 455.068 215.544 458.398 213.16C460.435 211.754 462.842 210.981 465.317 210.937C467.792 210.893 470.225 211.581 472.311 212.914C476.624 211.01 481.857 211.857 485.775 214.478C489.694 217.099 492.375 221.296 493.831 225.778C495.173 229.636 495.404 233.792 494.498 237.775C493.769 240.545 492.383 243.1 490.457 245.221C488.531 247.343 486.121 248.969 483.433 249.962C482.386 250.375 481.249 250.506 480.135 250.341C479.022 250.176 477.971 249.722 477.089 249.024C477.089 249.024 474.643 246.89 473.878 244.32C473.289 242.344 472.975 240.151 473.801 238.755Z" fill="#2F2E41"/>
<path d="M421.162 254.58C421.25 254.97 421.308 255.366 421.334 255.764L452.369 273.658L459.912 269.318L467.953 279.84L455.347 288.821C454.328 289.547 453.101 289.923 451.851 289.892C450.6 289.862 449.393 289.427 448.411 288.652L416.407 263.419C414.962 263.954 413.389 264.036 411.896 263.656C410.403 263.275 409.062 262.449 408.05 261.287C407.039 260.126 406.405 258.684 406.233 257.154C406.062 255.624 406.36 254.078 407.089 252.721C407.818 251.365 408.943 250.263 410.315 249.561C411.686 248.859 413.239 248.591 414.766 248.793C416.293 248.995 417.723 249.657 418.865 250.691C420.006 251.724 420.806 253.081 421.157 254.58H421.162Z" fill="#FFB8B8"/>
<path d="M453.407 274.506L463.437 287.499C463.723 287.868 464.084 288.172 464.497 288.389C464.911 288.606 465.366 288.731 465.832 288.757C466.298 288.782 466.764 288.707 467.199 288.537C467.633 288.366 468.026 288.104 468.35 287.768L479.705 275.983C481.626 274.554 482.901 272.421 483.248 270.052C483.596 267.684 482.987 265.275 481.558 263.354C480.128 261.434 477.993 260.16 475.623 259.813C473.254 259.465 470.843 260.073 468.922 261.502C468.823 261.575 468.727 261.65 468.632 261.727L454.391 269.686C453.983 269.914 453.629 270.227 453.354 270.604C453.078 270.981 452.887 271.413 452.793 271.87C452.7 272.328 452.706 272.8 452.811 273.255C452.917 273.71 453.119 274.136 453.405 274.506L453.407 274.506Z" fill="#E93314"/>
<path d="M136.625 305.472C136.271 305.633 135.93 305.823 135.606 306.04L103.203 292.217L102.047 283.686L89.0992 283.607L89.8643 303.175L132.633 314.481C132.723 314.778 132.831 315.069 132.957 315.353C133.575 316.672 134.57 317.778 135.815 318.534C137.061 319.29 138.502 319.661 139.958 319.601C141.414 319.54 142.82 319.051 143.999 318.195C145.178 317.339 146.077 316.154 146.584 314.789C147.091 313.423 147.184 311.939 146.849 310.521C146.515 309.103 145.769 307.816 144.705 306.821C143.641 305.826 142.307 305.167 140.869 304.927C139.432 304.688 137.956 304.878 136.626 305.474L136.625 305.472Z" fill="#A0616A"/>
<path d="M84.3904 482.779H93.2475L97.4609 448.635H84.3889L84.3904 482.779Z" fill="#A0616A"/>
<path d="M99.574 480.25H82.4924V490.996H110.329C110.329 488.145 109.196 485.411 107.179 483.395C105.162 481.379 102.426 480.246 99.574 480.246H99.5739L99.574 480.25Z" fill="#2F2E41"/>
<path d="M49.9441 480.278L58.7579 481.145L66.301 447.578L53.2919 446.3L49.9441 480.278Z" fill="#A0616A"/>
<path d="M65.3079 479.25L48.3118 477.577L47.2578 488.273L74.9545 490.999C75.0929 489.595 74.9532 488.176 74.5432 486.826C74.1333 485.475 73.4613 484.219 72.5654 483.128C71.6696 482.037 70.5675 481.133 69.3222 480.467C68.0768 479.802 66.7125 479.389 65.3072 479.25L65.3079 479.25Z" fill="#2F2E41"/>
<path d="M81.9247 247.471C91.7244 247.471 99.6687 239.531 99.6687 229.736C99.6687 219.942 91.7244 212.002 81.9247 212.002C72.1249 212.002 64.1807 219.942 64.1807 229.736C64.1807 239.531 72.1249 247.471 81.9247 247.471Z" fill="#A0616A"/>
<path d="M95.2271 475.874C95.9885 475.876 96.7261 475.609 97.3097 475.12C97.8933 474.631 98.2854 473.952 98.4167 473.203C102.998 447.772 117.986 364.605 118.345 362.3C118.353 362.247 118.357 362.193 118.356 362.139V355.938C118.357 355.712 118.286 355.492 118.155 355.309L116.175 352.537C116.081 352.404 115.958 352.294 115.814 352.216C115.671 352.138 115.512 352.093 115.349 352.086C104.063 351.558 67.1008 350.007 65.3149 352.237C63.5218 354.475 64.159 361.268 64.3035 362.606L64.2963 362.745L47.6909 468.888C47.5608 469.734 47.7695 470.598 48.2718 471.292C48.7741 471.986 49.5296 472.454 50.3747 472.595L60.7462 474.303C61.5186 474.427 62.3099 474.27 62.9761 473.86C63.6424 473.45 64.1393 472.815 64.3765 472.07C67.5841 461.825 78.3406 427.361 82.0684 414.026C82.0923 413.942 82.1458 413.869 82.219 413.822C82.2922 413.774 82.3802 413.754 82.4666 413.767C82.5531 413.779 82.6322 413.822 82.6893 413.888C82.7464 413.954 82.7776 414.039 82.7772 414.126C82.5908 426.839 82.1407 459.271 81.9825 470.473L81.9659 471.68C81.959 472.497 82.2589 473.286 82.8065 473.893C83.354 474.499 84.1092 474.878 84.9228 474.955L94.9237 475.86C95.0245 475.87 95.1258 475.875 95.2271 475.874Z" fill="#2F2E41"/>
<path d="M93.1862 254.444C96.2826 256.284 98.1357 259.665 99.1991 263.109C101.168 269.478 102.352 276.064 102.728 282.719L103.852 302.648L117.762 355.481C105.705 365.677 98.7512 363.36 82.5207 355.02C66.2903 346.68 64.4364 357.801 64.4364 357.801L61.1912 312.847L56.5546 263.724C57.5955 262.471 58.7737 261.339 60.0671 260.349C64.3528 257.017 69.3392 254.701 74.6505 253.576C79.9618 252.45 85.4594 252.544 90.7292 253.85L93.1862 254.444Z" fill="#2579CB"/>
<path d="M97.7043 316.141C97.3304 316.281 96.968 316.45 96.6207 316.647L64.5802 300.617L64.0485 291.934L50.832 291.023L50.124 310.817L92.9405 324.969C93.2899 326.469 94.0877 327.827 95.228 328.862C96.3683 329.897 97.797 330.561 99.324 330.765C100.851 330.969 102.404 330.703 103.776 330.003C105.148 329.303 106.275 328.203 107.006 326.847C107.737 325.492 108.037 323.946 107.868 322.416C107.698 320.886 107.067 319.443 106.057 318.28C105.047 317.118 103.707 316.29 102.215 315.907C100.722 315.524 99.149 315.604 97.7036 316.137L97.7043 316.141Z" fill="#A0616A"/>
<path d="M56.7857 263.945C48.9031 266.725 47.5138 296.852 47.5138 296.852C56.7878 291.754 67.9164 300.096 67.9164 300.096C67.9164 300.096 70.2347 292.217 73.0169 282.021C73.857 279.153 73.9575 276.12 73.3089 273.203C72.6604 270.286 71.284 267.58 69.3078 265.337C69.3078 265.337 64.669 261.163 56.7857 263.945Z" fill="#2579CB"/>
<path d="M66.0179 234.427C68.2285 232.659 71.2447 235.871 71.2447 235.871L73.0133 219.963C73.0133 219.963 84.0667 221.287 91.1424 219.521C98.218 217.756 99.3226 225.93 99.3226 225.93C99.6874 222.628 99.7613 219.301 99.5437 215.986C99.1015 212.009 93.3538 208.031 83.1839 205.38C73.014 202.728 67.7084 214.219 67.7084 214.219C60.6299 217.753 63.8043 236.194 66.0179 234.427Z" fill="#2F2E41"/>
<path d="M157.184 307.679L129.777 329.73L94.5156 323.5L118.259 305.077L157.184 307.679Z" fill="#E3E8F4"/>
<g filter="url(#filter0_dddddddd)">
<path d="M399.79 116.644H397.105V43.137C397.105 31.8536 392.62 21.0323 384.638 13.0538C376.655 5.07521 365.828 0.592896 354.538 0.592896H198.723C187.434 0.592896 176.607 5.07521 168.624 13.0538C160.641 21.0323 156.156 31.8536 156.156 43.137V446.402C156.156 457.685 160.641 468.506 168.624 476.485C176.607 484.463 187.434 488.946 198.723 488.946H354.541C365.83 488.946 376.658 484.463 384.64 476.485C392.623 468.506 397.108 457.685 397.108 446.402V168.967H399.79V116.644Z" fill="#3F3D56"/>
<path d="M388.429 40.2901V449.25C388.428 457.805 385.028 466.009 378.976 472.059C372.924 478.109 364.716 481.509 356.157 481.513H197.137C188.574 481.513 180.362 478.115 174.306 472.064C168.25 466.013 164.847 457.805 164.845 449.247V40.2901C164.848 31.7323 168.251 23.526 174.307 17.476C180.363 11.426 188.575 8.0278 197.137 8.02875H216.427C215.48 10.3568 215.119 12.8816 215.377 15.3815C215.635 17.8813 216.503 20.2796 217.906 22.3654C219.308 24.4513 221.202 26.1609 223.42 27.3441C225.639 28.5272 228.114 29.1476 230.628 29.1507H321.286C323.801 29.1473 326.276 28.5266 328.495 27.3431C330.713 26.1596 332.606 24.4496 334.008 22.3634C335.411 20.2772 336.279 17.8787 336.536 15.3787C336.794 12.8787 336.433 10.3538 335.485 8.02588H356.148C364.707 8.0274 372.915 11.426 378.968 17.4744C385.021 23.5229 388.423 31.7261 388.426 40.2808L388.429 40.2901Z" fill="#E6E6E6"/>
<path d="M371.486 460.165H181.788C180.169 460.163 178.617 459.519 177.472 458.375C176.327 457.231 175.683 455.679 175.681 454.061V55.4792C175.683 53.8607 176.327 52.3091 177.472 51.1647C178.617 50.0203 180.169 49.3766 181.788 49.3748H371.486C373.105 49.3766 374.658 50.0203 375.803 51.1647C376.948 52.3091 377.592 53.8607 377.594 55.4792V454.061C377.592 455.679 376.948 457.231 375.803 458.375C374.658 459.519 373.105 460.163 371.486 460.165Z" fill="white"/>
<path d="M275.2 176.873C300.157 176.873 320.389 156.652 320.389 131.709C320.389 106.765 300.157 86.5439 275.2 86.5439C250.243 86.5439 230.011 106.765 230.011 131.709C230.011 156.652 250.243 176.873 275.2 176.873Z" fill="white"/>
<path d="M319.052 201.499H228.631V208.292H319.052V201.499Z" fill="#E6E6E6"/>
<path d="M330.328 219.15H216.533V225.942H330.328V219.15Z" fill="#E6E6E6"/>
<path d="M352.556 273.239H199.034V426.679H352.556V273.239Z" fill="white"/>
<path d="M290.41 288.05H230.65V292.54H290.41V288.05Z" fill="#E6E6E6"/>
<path d="M322.933 301.23H230.65V305.719H322.933V301.23Z" fill="#2579CB"/>
<path d="M306.818 313.781H231.609V318.271H306.818V313.781Z" fill="#E6E6E6"/>
<path d="M274.556 327.553H230.65V332.042H274.556V327.553Z" fill="#E6E6E6"/>
<path d="M296.915 341.005H230.65V345.494H296.915V341.005Z" fill="#2579CB"/>
<path d="M290.41 354.541H230.65V359.03H290.41V354.541Z" fill="#E6E6E6"/>
<path d="M322.933 367.72H230.65V372.209H322.933V367.72Z" fill="#2579CB"/>
<path d="M306.818 380.271H231.609V384.761H306.818V380.271Z" fill="#E6E6E6"/>
<path d="M274.556 394.044H230.65V398.533H274.556V394.044Z" fill="#E6E6E6"/>
<path d="M296.915 407.496H230.65V411.985H296.915V407.496Z" fill="#E6E6E6"/>
</g>
<path d="M336.099 163.988V98.9426C336.097 96.9485 335.303 95.0368 333.893 93.6267C332.482 92.2167 330.571 91.4232 328.576 91.4204H226.348C224.353 91.4232 222.441 92.2167 221.031 93.6267C219.621 95.0368 218.827 96.9485 218.824 98.9426V163.988C218.827 165.982 219.621 167.894 221.031 169.304C222.441 170.714 224.353 171.507 226.348 171.51H328.576C330.571 171.507 332.482 170.714 333.893 169.304C335.303 167.894 336.097 165.982 336.099 163.988ZM226.348 170.625C224.588 170.623 222.9 169.923 221.656 168.679C220.412 167.434 219.711 165.747 219.709 163.988V98.9426C219.711 97.183 220.412 95.496 221.656 94.2518C222.9 93.0075 224.588 92.3075 226.348 92.3054H328.576C330.336 92.3075 332.023 93.0075 333.268 94.2518C334.512 95.496 335.212 97.183 335.214 98.9426V163.988C335.212 165.748 334.512 167.434 333.268 168.679C332.023 169.923 330.336 170.623 328.576 170.625H226.348Z" fill="#2579CB"/>
<path d="M335.214 103.123H219.709C219.592 103.123 219.479 103.077 219.396 102.994C219.313 102.911 219.267 102.798 219.267 102.681C219.267 102.564 219.313 102.451 219.396 102.368C219.479 102.285 219.592 102.239 219.709 102.239H335.214C335.332 102.239 335.444 102.285 335.527 102.368C335.61 102.451 335.657 102.564 335.657 102.681C335.657 102.798 335.61 102.911 335.527 102.994C335.444 103.077 335.332 103.123 335.214 103.123Z" fill="#2579CB"/>
<path d="M227.233 99.8277C228.455 99.8277 229.445 98.8371 229.445 97.6152C229.445 96.3934 228.455 95.4028 227.233 95.4028C226.011 95.4028 225.02 96.3934 225.02 97.6152C225.02 98.8371 226.011 99.8277 227.233 99.8277Z" fill="#2579CB"/>
<path d="M234.756 99.8277C235.978 99.8277 236.969 98.8371 236.969 97.6152C236.969 96.3934 235.978 95.4028 234.756 95.4028C233.534 95.4028 232.543 96.3934 232.543 97.6152C232.543 98.8371 233.534 99.8277 234.756 99.8277Z" fill="#2579CB"/>
<path d="M242.279 99.8277C243.501 99.8277 244.492 98.8371 244.492 97.6152C244.492 96.3934 243.501 95.4028 242.279 95.4028C241.057 95.4028 240.067 96.3934 240.067 97.6152C240.067 98.8371 241.057 99.8277 242.279 99.8277Z" fill="#2579CB"/>
<path d="M258.816 150.745C258.777 150.745 258.738 150.737 258.702 150.722C258.666 150.707 258.633 150.685 258.605 150.657C258.578 150.63 258.556 150.597 258.541 150.561C258.526 150.525 258.518 150.486 258.518 150.447C258.518 147.342 257.157 145.61 254.961 143.822C254.93 143.798 254.905 143.767 254.886 143.733C254.868 143.698 254.856 143.661 254.852 143.622C254.848 143.583 254.852 143.543 254.863 143.506C254.874 143.468 254.892 143.433 254.917 143.403C254.942 143.373 254.972 143.347 255.007 143.329C255.041 143.31 255.079 143.299 255.118 143.295C255.157 143.291 255.197 143.295 255.234 143.306C255.272 143.317 255.306 143.336 255.337 143.361C257.669 145.259 259.114 147.107 259.114 150.447C259.114 150.486 259.106 150.525 259.091 150.561C259.076 150.597 259.054 150.63 259.027 150.657C258.999 150.685 258.966 150.707 258.93 150.722C258.894 150.737 258.855 150.745 258.816 150.745Z" fill="#2579CB"/>
<path d="M233.305 150.745C233.266 150.745 233.227 150.737 233.191 150.722C233.155 150.707 233.122 150.685 233.095 150.657C233.067 150.63 233.045 150.597 233.03 150.561C233.015 150.525 233.007 150.486 233.007 150.447C233.007 147.107 234.452 145.259 236.784 143.361C236.815 143.336 236.85 143.317 236.887 143.306C236.925 143.295 236.964 143.291 237.003 143.295C237.042 143.299 237.08 143.31 237.114 143.329C237.149 143.347 237.179 143.373 237.204 143.403C237.229 143.433 237.247 143.468 237.258 143.506C237.27 143.543 237.273 143.583 237.269 143.622C237.265 143.661 237.253 143.698 237.235 143.733C237.216 143.767 237.191 143.798 237.16 143.822C234.964 145.61 233.603 147.342 233.603 150.447C233.603 150.486 233.595 150.525 233.58 150.561C233.565 150.597 233.543 150.63 233.516 150.657C233.488 150.685 233.455 150.707 233.419 150.722C233.383 150.737 233.344 150.745 233.305 150.745Z" fill="#2579CB"/>
<path d="M256.265 130.339C256.204 130.339 256.144 130.32 256.093 130.284C256.043 130.249 256.005 130.199 255.984 130.141C255.964 130.083 255.962 130.02 255.978 129.961C255.995 129.901 256.029 129.849 256.077 129.81C258.335 127.972 258.518 125.362 258.518 122.389C258.518 122.31 258.55 122.234 258.605 122.178C258.661 122.122 258.737 122.091 258.816 122.091C258.895 122.091 258.971 122.122 259.027 122.178C259.082 122.234 259.114 122.31 259.114 122.389C259.114 125.517 258.914 128.269 256.453 130.272C256.4 130.315 256.334 130.339 256.265 130.339Z" fill="#2579CB"/>
<path d="M235.856 130.179C235.788 130.179 235.721 130.156 235.668 130.112C233.208 128.109 233.007 125.429 233.007 122.389C233.007 122.31 233.039 122.234 233.095 122.178C233.15 122.122 233.226 122.091 233.305 122.091C233.384 122.091 233.46 122.122 233.516 122.178C233.572 122.234 233.603 122.31 233.603 122.389C233.603 125.377 233.783 127.81 236.044 129.651C236.092 129.689 236.126 129.742 236.143 129.801C236.16 129.86 236.157 129.923 236.137 129.981C236.116 130.039 236.078 130.089 236.028 130.125C235.978 130.16 235.918 130.179 235.856 130.179V130.179Z" fill="#2579CB"/>
<path d="M262.643 136.726H256.265C256.186 136.726 256.11 136.695 256.054 136.639C255.999 136.583 255.967 136.507 255.967 136.428C255.967 136.349 255.999 136.273 256.054 136.218C256.11 136.162 256.186 136.13 256.265 136.13H262.643C262.722 136.13 262.797 136.162 262.853 136.218C262.909 136.273 262.94 136.349 262.94 136.428C262.94 136.507 262.909 136.583 262.853 136.639C262.797 136.695 262.722 136.726 262.643 136.726Z" fill="#2579CB"/>
<path d="M235.856 136.726H229.479C229.4 136.726 229.324 136.695 229.268 136.639C229.212 136.583 229.181 136.507 229.181 136.428C229.181 136.349 229.212 136.273 229.268 136.218C229.324 136.162 229.4 136.13 229.479 136.13H235.856C235.935 136.13 236.011 136.162 236.067 136.218C236.123 136.273 236.154 136.349 236.154 136.428C236.154 136.507 236.123 136.583 236.067 136.639C236.011 136.695 235.935 136.726 235.856 136.726Z" fill="#2579CB"/>
<path d="M246.061 149.469C246.021 149.469 245.983 149.461 245.947 149.446C245.91 149.431 245.878 149.41 245.85 149.382C245.822 149.354 245.8 149.321 245.785 149.285C245.77 149.249 245.763 149.21 245.763 149.171V128.766C245.763 128.687 245.794 128.611 245.85 128.555C245.906 128.499 245.982 128.468 246.061 128.468C246.14 128.468 246.215 128.499 246.271 128.555C246.327 128.611 246.358 128.687 246.358 128.766V149.171C246.358 149.21 246.351 149.249 246.336 149.285C246.321 149.321 246.299 149.354 246.271 149.382C246.244 149.41 246.211 149.431 246.175 149.446C246.138 149.461 246.1 149.469 246.061 149.469Z" fill="#2579CB"/>
<path d="M246.061 149.469C243.276 149.466 240.607 148.359 238.638 146.39C236.669 144.422 235.562 141.752 235.558 138.969V131.311C235.558 126.407 239.583 123.361 246.061 123.361C252.833 123.361 256.563 126.184 256.563 131.311V138.969C256.56 141.752 255.452 144.422 253.483 146.39C251.514 148.359 248.845 149.466 246.061 149.469ZM246.061 123.956C241.271 123.956 236.154 125.888 236.154 131.311V138.969C236.153 140.27 236.409 141.558 236.907 142.761C237.404 143.963 238.134 145.056 239.054 145.976C239.974 146.896 241.066 147.626 242.268 148.125C243.471 148.623 244.759 148.879 246.061 148.879C247.362 148.879 248.651 148.623 249.853 148.125C251.055 147.626 252.148 146.896 253.068 145.976C253.988 145.056 254.717 143.963 255.215 142.761C255.712 141.558 255.968 140.27 255.967 138.969V131.311C255.967 124.912 249.76 123.956 246.061 123.956Z" fill="#2579CB"/>
<path d="M239.956 125.199C239.897 125.199 239.839 125.181 239.789 125.148C239.74 125.114 239.702 125.067 239.68 125.012C239.508 124.581 239.408 124.125 239.385 123.662C239.391 121.897 240.093 120.205 241.34 118.955C242.587 117.705 244.277 116.999 246.043 116.99H246.077C247.841 116.998 249.529 117.702 250.776 118.949C252.023 120.195 252.727 121.884 252.736 123.647C252.721 124.077 252.629 124.502 252.465 124.9C252.435 124.973 252.377 125.03 252.304 125.06C252.231 125.09 252.15 125.091 252.077 125.061C252.004 125.031 251.946 124.973 251.916 124.901C251.885 124.828 251.885 124.747 251.914 124.674C252.05 124.344 252.127 123.992 252.141 123.636C252.13 122.032 251.488 120.497 250.352 119.364C249.217 118.231 247.68 117.592 246.077 117.585H246.044C244.438 117.593 242.9 118.234 241.765 119.37C240.63 120.505 239.988 122.043 239.981 123.648C240.002 124.04 240.087 124.426 240.233 124.791C240.251 124.836 240.258 124.885 240.252 124.933C240.247 124.982 240.23 125.028 240.203 125.068C240.175 125.108 240.139 125.141 240.096 125.164C240.053 125.187 240.005 125.199 239.956 125.199H239.956Z" fill="#2579CB"/>
<path d="M276.307 123.58H272.733C272.18 123.58 271.65 123.36 271.259 122.969C270.868 122.578 270.648 122.048 270.648 121.495C270.648 120.943 270.868 120.413 271.259 120.022C271.65 119.631 272.18 119.411 272.733 119.411H276.307C276.86 119.411 277.39 119.631 277.781 120.022C278.172 120.413 278.391 120.943 278.391 121.495C278.391 122.048 278.172 122.578 277.781 122.969C277.39 123.36 276.86 123.58 276.307 123.58Z" fill="#E6E6E6"/>
<path d="M300.727 132.364H297.153C296.6 132.364 296.07 132.144 295.679 131.754C295.288 131.363 295.069 130.832 295.069 130.28C295.069 129.727 295.288 129.197 295.679 128.806C296.07 128.415 296.6 128.195 297.153 128.195H300.727C301.28 128.195 301.81 128.415 302.201 128.806C302.592 129.197 302.812 129.727 302.812 130.28C302.812 130.832 302.592 131.363 302.201 131.754C301.81 132.144 301.28 132.364 300.727 132.364Z" fill="#E6E6E6"/>
<path d="M312.044 132.364H308.47C307.917 132.364 307.387 132.144 306.996 131.754C306.605 131.363 306.385 130.832 306.385 130.28C306.385 129.727 306.605 129.197 306.996 128.806C307.387 128.415 307.917 128.195 308.47 128.195H312.044C312.597 128.195 313.127 128.415 313.518 128.806C313.909 129.197 314.128 129.727 314.128 130.28C314.128 130.832 313.909 131.363 313.518 131.754C313.127 132.144 312.597 132.364 312.044 132.364Z" fill="#E6E6E6"/>
<path d="M323.36 132.364H319.787C319.234 132.364 318.704 132.144 318.313 131.754C317.922 131.363 317.702 130.832 317.702 130.28C317.702 129.727 317.922 129.197 318.313 128.806C318.704 128.415 319.234 128.195 319.787 128.195H323.36C323.913 128.195 324.444 128.415 324.834 128.806C325.225 129.197 325.445 129.727 325.445 130.28C325.445 130.832 325.225 131.363 324.834 131.754C324.444 132.144 323.913 132.364 323.36 132.364Z" fill="#E6E6E6"/>
<path d="M301.025 123.729H284.348C283.795 123.729 283.264 123.509 282.874 123.118C282.483 122.727 282.263 122.197 282.263 121.644C282.263 121.092 282.483 120.561 282.874 120.171C283.264 119.78 283.795 119.56 284.348 119.56H301.025C301.578 119.56 302.108 119.78 302.499 120.171C302.89 120.561 303.109 121.092 303.109 121.644C303.109 122.197 302.89 122.727 302.499 123.118C302.108 123.509 301.578 123.729 301.025 123.729Z" fill="#E6E6E6"/>
<path d="M289.41 132.066H272.733C272.18 132.066 271.65 131.847 271.259 131.456C270.868 131.065 270.648 130.535 270.648 129.982C270.648 129.429 270.868 128.899 271.259 128.508C271.65 128.117 272.18 127.897 272.733 127.897H289.41C289.963 127.897 290.493 128.117 290.884 128.508C291.275 128.899 291.495 129.429 291.495 129.982C291.495 130.535 291.275 131.065 290.884 131.456C290.493 131.847 289.963 132.066 289.41 132.066Z" fill="#E6E6E6"/>
<path d="M322.169 123.729H309.363C308.811 123.729 308.28 123.509 307.889 123.118C307.498 122.727 307.279 122.197 307.279 121.644C307.279 121.092 307.498 120.561 307.889 120.171C308.28 119.78 308.811 119.56 309.363 119.56H322.169C322.722 119.56 323.252 119.78 323.643 120.171C324.034 120.561 324.254 121.092 324.254 121.644C324.254 122.197 324.034 122.727 323.643 123.118C323.252 123.509 322.722 123.729 322.169 123.729Z" fill="#E6E6E6"/>
<path d="M276.307 141.148H272.733C272.18 141.148 271.65 140.928 271.259 140.537C270.868 140.147 270.648 139.616 270.648 139.064C270.648 138.511 270.868 137.981 271.259 137.59C271.65 137.199 272.18 136.979 272.733 136.979H276.307C276.86 136.979 277.39 137.199 277.781 137.59C278.172 137.981 278.391 138.511 278.391 139.064C278.391 139.616 278.172 140.147 277.781 140.537C277.39 140.928 276.86 141.148 276.307 141.148Z" fill="#E6E6E6"/>
<path d="M301.025 141.297H284.348C283.795 141.297 283.264 141.077 282.874 140.686C282.483 140.296 282.263 139.765 282.263 139.213C282.263 138.66 282.483 138.13 282.874 137.739C283.264 137.348 283.795 137.128 284.348 137.128H301.025C301.578 137.128 302.108 137.348 302.499 137.739C302.89 138.13 303.109 138.66 303.109 139.213C303.109 139.765 302.89 140.296 302.499 140.686C302.108 141.077 301.578 141.297 301.025 141.297Z" fill="#E6E6E6"/>
<path d="M322.169 141.297H309.363C308.811 141.297 308.28 141.077 307.889 140.686C307.498 140.296 307.279 139.765 307.279 139.213C307.279 138.66 307.498 138.13 307.889 137.739C308.28 137.348 308.811 137.128 309.363 137.128H322.169C322.722 137.128 323.252 137.348 323.643 137.739C324.034 138.13 324.254 138.66 324.254 139.213C324.254 139.765 324.034 140.296 323.643 140.686C323.252 141.077 322.722 141.297 322.169 141.297Z" fill="#E6E6E6"/>
<path d="M316.511 148.294C316.511 147.742 316.731 147.212 317.122 146.821C317.513 146.43 318.043 146.211 318.596 146.21H322.169C322.722 146.21 323.252 146.43 323.643 146.82C324.034 147.211 324.254 147.742 324.254 148.294C324.254 148.847 324.034 149.377 323.643 149.768C323.252 150.159 322.722 150.379 322.169 150.379H318.596C318.043 150.378 317.513 150.158 317.122 149.767C316.731 149.377 316.511 148.847 316.511 148.294Z" fill="#E6E6E6"/>
<path d="M291.793 148.443C291.793 147.891 292.013 147.361 292.404 146.97C292.795 146.579 293.325 146.36 293.877 146.359H310.555C311.108 146.359 311.638 146.578 312.029 146.969C312.42 147.36 312.639 147.89 312.639 148.443C312.639 148.996 312.42 149.526 312.029 149.917C311.638 150.308 311.108 150.528 310.555 150.528H293.877C293.325 150.527 292.795 150.307 292.404 149.916C292.013 149.526 291.793 148.996 291.793 148.443Z" fill="#E6E6E6"/>
<path d="M270.648 148.443C270.649 147.891 270.869 147.361 271.26 146.97C271.651 146.579 272.18 146.36 272.733 146.359H285.539C286.092 146.359 286.622 146.578 287.013 146.969C287.404 147.36 287.623 147.89 287.623 148.443C287.623 148.996 287.404 149.526 287.013 149.917C286.622 150.308 286.092 150.528 285.539 150.528H272.733C272.18 150.527 271.651 150.307 271.26 149.916C270.869 149.526 270.649 148.996 270.648 148.443Z" fill="#E6E6E6"/>
</g>
<defs>
<filter id="filter0_dddddddd" x="152.156" y="0.592896" width="251.633" height="496.353" filterUnits="userSpaceOnUse" color-interpolation-filters="sRGB">
<feFlood flood-opacity="0" result="BackgroundImageFix"/>
<feColorMatrix in="SourceAlpha" type="matrix" values="0 0 0 0 0 0 0 0 0 0 0 0 0 0 0 0 0 0 127 0" result="hardAlpha"/>
<feOffset dy="4"/>
<feGaussianBlur stdDeviation="2"/>
<feColorMatrix type="matrix" values="0 0 0 0 0 0 0 0 0 0 0 0 0 0 0 0 0 0 0.25 0"/>
<feBlend mode="normal" in2="BackgroundImageFix" result="effect1_dropShadow"/>
<feColorMatrix in="SourceAlpha" type="matrix" values="0 0 0 0 0 0 0 0 0 0 0 0 0 0 0 0 0 0 127 0" result="hardAlpha"/>
<feOffset dy="4"/>
<feGaussianBlur stdDeviation="2"/>
<feColorMatrix type="matrix" values="0 0 0 0 0 0 0 0 0 0 0 0 0 0 0 0 0 0 0.25 0"/>
<feBlend mode="normal" in2="effect1_dropShadow" result="effect2_dropShadow"/>
<feColorMatrix in="SourceAlpha" type="matrix" values="0 0 0 0 0 0 0 0 0 0 0 0 0 0 0 0 0 0 127 0" result="hardAlpha"/>
<feOffset dy="4"/>
<feGaussianBlur stdDeviation="2"/>
<feColorMatrix type="matrix" values="0 0 0 0 0 0 0 0 0 0 0 0 0 0 0 0 0 0 0.25 0"/>
<feBlend mode="normal" in2="effect2_dropShadow" result="effect3_dropShadow"/>
<feColorMatrix in="SourceAlpha" type="matrix" values="0 0 0 0 0 0 0 0 0 0 0 0 0 0 0 0 0 0 127 0" result="hardAlpha"/>
<feOffset dy="4"/>
<feGaussianBlur stdDeviation="2"/>
<feColorMatrix type="matrix" values="0 0 0 0 0 0 0 0 0 0 0 0 0 0 0 0 0 0 0.25 0"/>
<feBlend mode="normal" in2="effect3_dropShadow" result="effect4_dropShadow"/>
<feColorMatrix in="SourceAlpha" type="matrix" values="0 0 0 0 0 0 0 0 0 0 0 0 0 0 0 0 0 0 127 0" result="hardAlpha"/>
<feOffset dy="4"/>
<feGaussianBlur stdDeviation="2"/>
<feColorMatrix type="matrix" values="0 0 0 0 0 0 0 0 0 0 0 0 0 0 0 0 0 0 0.25 0"/>
<feBlend mode="normal" in2="effect4_dropShadow" result="effect5_dropShadow"/>
<feColorMatrix in="SourceAlpha" type="matrix" values="0 0 0 0 0 0 0 0 0 0 0 0 0 0 0 0 0 0 127 0" result="hardAlpha"/>
<feOffset dy="4"/>
<feGaussianBlur stdDeviation="2"/>
<feColorMatrix type="matrix" values="0 0 0 0 0 0 0 0 0 0 0 0 0 0 0 0 0 0 0.25 0"/>
<feBlend mode="normal" in2="effect5_dropShadow" result="effect6_dropShadow"/>
<feColorMatrix in="SourceAlpha" type="matrix" values="0 0 0 0 0 0 0 0 0 0 0 0 0 0 0 0 0 0 127 0" result="hardAlpha"/>
<feOffset dy="4"/>
<feGaussianBlur stdDeviation="2"/>
<feColorMatrix type="matrix" values="0 0 0 0 0 0 0 0 0 0 0 0 0 0 0 0 0 0 0.25 0"/>
<feBlend mode="normal" in2="effect6_dropShadow" result="effect7_dropShadow"/>
<feColorMatrix in="SourceAlpha" type="matrix" values="0 0 0 0 0 0 0 0 0 0 0 0 0 0 0 0 0 0 127 0" result="hardAlpha"/>
<feOffset dy="4"/>
<feGaussianBlur stdDeviation="2"/>
<feColorMatrix type="matrix" values="0 0 0 0 0 0 0 0 0 0 0 0 0 0 0 0 0 0 0.25 0"/>
<feBlend mode="normal" in2="effect7_dropShadow" result="effect8_dropShadow"/>
<feBlend mode="normal" in="SourceGraphic" in2="effect8_dropShadow" result="shape"/>
</filter>
<clipPath id="clip0">
<rect width="526" height="491" fill="white"/>
</clipPath>
</defs>
</svg>
