<svg width="123" height="123" viewBox="0 0 123 123" fill="none" xmlns="http://www.w3.org/2000/svg">
<path d="M44.625 57.75C49 66.5 56.5 73.6875 65.25 78.375L72.125 71.5C73.0625 70.5625 74.3125 70.25 75.25 70.875C78.6875 72.125 82.4375 72.75 86.5 72.75C88.375 72.75 89.625 74 89.625 75.875V86.5C89.625 88.375 88.375 89.625 86.5 89.625C57.125 89.625 33.375 65.875 33.375 36.5C33.375 34.625 34.9375 33.375 36.5 33.375H47.4375C49.3125 33.375 50.5625 34.625 50.5625 36.5C50.5625 40.25 51.1875 44 52.4375 47.75C52.75 48.6875 52.4375 49.9375 51.8125 50.875L44.625 57.75ZM67.75 33.375C65.875 33.375 64.625 34.625 64.625 36.5C64.625 38.375 65.875 39.625 67.75 39.625C69.625 39.625 70.875 38.375 70.875 36.5C70.875 34.625 69.625 33.375 67.75 33.375ZM77.125 33.375C75.25 33.375 74 34.625 74 36.5C74 38.375 75.25 39.625 77.125 39.625C79 39.625 80.25 38.375 80.25 36.5C80.25 34.625 79 33.375 77.125 33.375ZM86.5 33.375C84.625 33.375 83.375 34.625 83.375 36.5C83.375 38.375 84.625 39.625 86.5 39.625C88.375 39.625 89.625 38.375 89.625 36.5C89.625 34.625 88.375 33.375 86.5 33.375ZM67.75 42.75C65.875 42.75 64.625 44 64.625 45.875C64.625 47.75 65.875 49 67.75 49C69.625 49 70.875 47.75 70.875 45.875C70.875 44 69.625 42.75 67.75 42.75ZM77.125 42.75C75.25 42.75 74 44 74 45.875C74 47.75 75.25 49 77.125 49C79 49 80.25 47.75 80.25 45.875C80.25 44 79 42.75 77.125 42.75ZM86.5 42.75C84.625 42.75 83.375 44 83.375 45.875C83.375 47.75 84.625 49 86.5 49C88.375 49 89.625 47.75 89.625 45.875C89.625 44 88.375 42.75 86.5 42.75ZM67.75 52.125C65.875 52.125 64.625 53.375 64.625 55.25C64.625 57.125 65.875 58.375 67.75 58.375C69.625 58.375 70.875 57.125 70.875 55.25C70.875 53.375 69.625 52.125 67.75 52.125ZM77.125 52.125C75.25 52.125 74 53.375 74 55.25C74 57.125 75.25 58.375 77.125 58.375C79 58.375 80.25 57.125 80.25 55.25C80.25 53.375 79 52.125 77.125 52.125ZM86.5 52.125C84.625 52.125 83.375 53.375 83.375 55.25C83.375 57.125 84.625 58.375 86.5 58.375C88.375 58.375 89.625 57.125 89.625 55.25C89.625 53.375 88.375 52.125 86.5 52.125Z" fill="#E93314"/>
<rect width="123" height="123" rx="5" fill="#E93314" fill-opacity="0.15"/>
</svg>
