<svg width="15" height="13" viewBox="0 0 15 13" fill="none" xmlns="http://www.w3.org/2000/svg">
<rect width="15" height="13" fill="#C4C4C4"/>
<g clip-path="url(#clip0)">
<rect width="1280" height="5260" transform="translate(-921 -4996)" fill="#1F365C"/>
<path d="M14.1883 2.10511C13.7995 2.68438 13.3075 3.20018 12.7362 3.61282C12.7441 3.73184 12.7441 3.85881 12.7441 3.98577C12.7441 7.8344 9.81597 12.2702 4.46758 12.2702C2.82497 12.2702 1.29345 11.7862 0 10.9609C0.230124 10.9847 0.460248 11.0006 0.698307 11.0006C2.06318 11.0006 3.31696 10.5324 4.30887 9.75474C3.70209 9.74219 3.11439 9.54044 2.62784 9.17766C2.14129 8.81488 1.7802 8.3092 1.595 7.73124C1.76957 7.76298 1.95209 7.78679 2.14253 7.78679C2.4044 7.78679 2.66626 7.74711 2.90432 7.68363C2.24617 7.54852 1.65473 7.1906 1.22975 6.67021C0.804763 6.14982 0.572224 5.49879 0.571342 4.82692V4.79518C0.968107 5.00943 1.41248 5.14433 1.8886 5.1602C1.49009 4.89289 1.1636 4.53149 0.937999 4.10797C0.712398 3.68445 0.594643 3.21186 0.595148 2.732C0.595148 2.20033 0.737983 1.70041 0.991913 1.2719C2.4282 3.03354 4.57074 4.19209 6.991 4.31112C6.94339 4.09687 6.91165 3.87468 6.91165 3.64456C6.91375 2.87355 7.22151 2.13485 7.76743 1.59041C8.31336 1.04597 9.0529 0.740232 9.82391 0.740234C10.6651 0.740234 11.4189 1.08939 11.9506 1.66073C12.6092 1.52583 13.2361 1.28777 13.7995 0.954488C13.5773 1.62899 13.1171 2.20033 12.514 2.55742C13.0921 2.49422 13.657 2.34164 14.1883 2.10511Z" fill="white"/>
</g>
<defs>
<clipPath id="clip0">
<rect width="1280" height="5260" fill="white" transform="translate(-921 -4996)"/>
</clipPath>
</defs>
</svg>
